<svg width="131" height="81" viewBox="0 0 131 81" fill="none" xmlns="http://www.w3.org/2000/svg">
<path fill-rule="evenodd" clip-rule="evenodd" d="M52.5178 8.22859C53.6581 8.22859 54.5826 8.9654 54.5826 9.8743C54.5826 10.7832 53.6581 11.52 52.5178 11.52C51.3775 11.52 50.4531 10.7832 50.4531 9.8743C50.4531 8.9654 51.3775 8.22859 52.5178 8.22859ZM69.0358 4.93715C70.1761 4.93715 71.1005 5.67395 71.1005 6.58286C71.1005 7.49176 70.1761 8.22857 69.0358 8.22857C67.8955 8.22857 66.9711 7.49175 66.9711 6.58286C66.9711 5.67395 67.8955 4.93715 69.0358 4.93715ZM85.5535 8.22859C86.6938 8.22859 87.6182 8.9654 87.6182 9.8743C87.6182 10.7832 86.6938 11.52 85.5535 11.52C84.4131 11.52 83.4887 10.7832 83.4887 9.8743C83.4887 8.9654 84.4131 8.22859 85.5535 8.22859ZM43.5671 19.7486H94.5039C98.965 19.7486 101.552 15.2331 98.9973 11.9438C93.8122 5.26628 82.3981 0.0102847 69.0355 0C55.6741 0.0102847 44.2588 5.26628 39.0737 11.9427C36.5161 15.2321 39.106 19.7485 43.5671 19.7485V19.7486ZM97.9417 36.2058H40.1293C38.989 36.2058 38.0646 36.9426 38.0646 37.8515V39.4972C38.0646 43.1328 41.7622 46.08 46.3235 46.08H91.7475C96.3088 46.08 100.006 43.1328 100.006 39.4972V37.8515C100.006 36.9426 99.082 36.2058 97.9417 36.2058H97.9417ZM95.8771 23.04H42.1942C38.7732 23.04 36 25.2505 36 27.9772C36 30.7039 38.7732 32.9143 42.1942 32.9143H95.8771C99.2981 32.9143 102.071 30.7039 102.071 27.9772C102.071 25.2505 99.2981 23.04 95.8771 23.04Z" fill="#FC6013"/>
<path d="M15.4141 70V49.7H24.2011C26.0184 49.7 27.5844 49.9997 28.8991 50.599C30.2137 51.179 31.2287 52.02 31.9441 53.122C32.6594 54.224 33.0171 55.5387 33.0171 57.066C33.0171 58.574 32.6594 59.879 31.9441 60.981C31.2287 62.0637 30.2137 62.895 28.8991 63.475C27.5844 64.055 26.0184 64.345 24.2011 64.345H18.0241L20.1121 62.286V70H15.4141ZM28.3191 70L23.2441 62.634H28.2611L33.3941 70H28.3191ZM20.1121 62.808L18.0241 60.604H23.9401C25.3901 60.604 26.4727 60.2947 27.1881 59.676C27.9034 59.038 28.2611 58.168 28.2611 57.066C28.2611 55.9447 27.9034 55.0747 27.1881 54.456C26.4727 53.8373 25.3901 53.528 23.9401 53.528H18.0241L20.1121 51.295V62.808ZM44.1633 70.232C42.3846 70.232 40.8186 69.884 39.4653 69.188C38.1313 68.492 37.0969 67.5447 36.3623 66.346C35.6276 65.128 35.2603 63.7457 35.2603 62.199C35.2603 60.633 35.6179 59.2507 36.3333 58.052C37.0679 56.834 38.0636 55.8867 39.3203 55.21C40.5769 54.514 41.9979 54.166 43.5833 54.166C45.1106 54.166 46.4833 54.4947 47.7013 55.152C48.9386 55.79 49.9149 56.718 50.6303 57.936C51.3456 59.1347 51.7033 60.575 51.7033 62.257C51.7033 62.431 51.6936 62.634 51.6743 62.866C51.6549 63.0787 51.6356 63.2817 51.6163 63.475H38.9433V60.836H49.2383L47.4983 61.619C47.4983 60.807 47.3339 60.1013 47.0053 59.502C46.6766 58.9027 46.2223 58.4387 45.6423 58.11C45.0623 57.762 44.3856 57.588 43.6123 57.588C42.8389 57.588 42.1526 57.762 41.5533 58.11C40.9733 58.4387 40.5189 58.9123 40.1903 59.531C39.8616 60.1303 39.6973 60.8457 39.6973 61.677V62.373C39.6973 63.2237 39.8809 63.9777 40.2483 64.635C40.6349 65.273 41.1666 65.766 41.8433 66.114C42.5393 66.4427 43.3513 66.607 44.2793 66.607C45.1106 66.607 45.8356 66.4813 46.4543 66.23C47.0923 65.9787 47.6723 65.6017 48.1943 65.099L50.6013 67.709C49.8859 68.521 48.9869 69.1493 47.9043 69.594C46.8216 70.0193 45.5746 70.232 44.1633 70.232ZM59.9642 70.232C58.6302 70.232 57.3445 70.0773 56.1072 69.768C54.8892 69.4393 53.9225 69.0333 53.2072 68.55L54.7152 65.302C55.4305 65.7467 56.2715 66.114 57.2382 66.404C58.2242 66.6747 59.1909 66.81 60.1382 66.81C61.1822 66.81 61.9169 66.6843 62.3422 66.433C62.7869 66.1817 63.0092 65.8337 63.0092 65.389C63.0092 65.0217 62.8352 64.751 62.4872 64.577C62.1585 64.3837 61.7139 64.2387 61.1532 64.142C60.5925 64.0453 59.9739 63.9487 59.2972 63.852C58.6399 63.7553 57.9729 63.6297 57.2962 63.475C56.6195 63.301 56.0009 63.0497 55.4402 62.721C54.8795 62.3923 54.4252 61.9477 54.0772 61.387C53.7485 60.8263 53.5842 60.1013 53.5842 59.212C53.5842 58.226 53.8645 57.356 54.4252 56.602C55.0052 55.848 55.8365 55.2583 56.9192 54.833C58.0019 54.3883 59.2972 54.166 60.8052 54.166C61.8685 54.166 62.9512 54.282 64.0532 54.514C65.1552 54.746 66.0735 55.0843 66.8082 55.529L65.3002 58.748C64.5462 58.3033 63.7825 58.0037 63.0092 57.849C62.2552 57.675 61.5205 57.588 60.8052 57.588C59.7999 57.588 59.0652 57.7233 58.6012 57.994C58.1372 58.2647 57.9052 58.6127 57.9052 59.038C57.9052 59.4247 58.0695 59.7147 58.3982 59.908C58.7462 60.1013 59.2005 60.256 59.7612 60.372C60.3219 60.488 60.9309 60.5943 61.5882 60.691C62.2649 60.7683 62.9415 60.894 63.6182 61.068C64.2949 61.242 64.9039 61.4933 65.4452 61.822C66.0059 62.1313 66.4602 62.5663 66.8082 63.127C67.1562 63.6683 67.3302 64.3837 67.3302 65.273C67.3302 66.2397 67.0402 67.1 66.4602 67.854C65.8802 68.5887 65.0392 69.1687 63.9372 69.594C62.8545 70.0193 61.5302 70.232 59.9642 70.232ZM76.5014 70.232C74.6648 70.232 73.2341 69.768 72.2094 68.84C71.1848 67.8927 70.6724 66.491 70.6724 64.635V50.947H75.1964V64.577C75.1964 65.2343 75.3704 65.7467 75.7184 66.114C76.0664 66.462 76.5401 66.636 77.1394 66.636C77.8548 66.636 78.4638 66.4427 78.9664 66.056L80.1844 69.246C79.7204 69.5747 79.1598 69.826 78.5024 70C77.8644 70.1547 77.1974 70.232 76.5014 70.232ZM68.2654 58.226V54.746H79.0824V58.226H68.2654ZM92.294 70V66.955L92.004 66.288V60.836C92.004 59.8693 91.7043 59.1153 91.105 58.574C90.525 58.0327 89.626 57.762 88.408 57.762C87.5767 57.762 86.755 57.8973 85.943 58.168C85.1503 58.4193 84.4737 58.7673 83.913 59.212L82.289 56.051C83.1397 55.4517 84.1643 54.9877 85.363 54.659C86.5617 54.3303 87.7797 54.166 89.017 54.166C91.395 54.166 93.2413 54.7267 94.556 55.848C95.8707 56.9693 96.528 58.719 96.528 61.097V70H92.294ZM87.538 70.232C86.32 70.232 85.276 70.029 84.406 69.623C83.536 69.1977 82.869 68.6273 82.405 67.912C81.941 67.1967 81.709 66.3943 81.709 65.505C81.709 64.577 81.9313 63.765 82.376 63.069C82.84 62.373 83.565 61.8317 84.551 61.445C85.537 61.039 86.8227 60.836 88.408 60.836H92.555V63.475H88.901C87.8377 63.475 87.103 63.649 86.697 63.997C86.3103 64.345 86.117 64.78 86.117 65.302C86.117 65.882 86.3393 66.346 86.784 66.694C87.248 67.0227 87.8763 67.187 88.669 67.187C89.423 67.187 90.0997 67.013 90.699 66.665C91.2983 66.2977 91.7333 65.766 92.004 65.07L92.7 67.158C92.3713 68.1633 91.772 68.927 90.902 69.449C90.032 69.971 88.9107 70.232 87.538 70.232ZM107.205 70.232C105.91 70.232 104.75 69.9807 103.725 69.478C102.72 68.9753 101.937 68.2117 101.376 67.187C100.816 66.143 100.535 64.8187 100.535 63.214V54.398H105.059V62.547C105.059 63.8423 105.33 64.7993 105.871 65.418C106.432 66.0173 107.215 66.317 108.22 66.317C108.916 66.317 109.535 66.172 110.076 65.882C110.618 65.5727 111.043 65.1087 111.352 64.49C111.662 63.852 111.816 63.0593 111.816 62.112V54.398H116.34V70H112.048V65.708L112.831 66.955C112.309 68.0377 111.536 68.8593 110.511 69.42C109.506 69.9613 108.404 70.232 107.205 70.232Z" fill="#FC6013"/>
</svg>
